<svg id="Capa_1" enable-background="new 0 0 512 512" height="512" viewBox="0 0 512 512" width="512" xmlns="http://www.w3.org/2000/svg"><g><path d="m372.557 265.068c-10.734-12.959-33.198-38.21-64.134-63.16-39.89-32.171-102.587-70.521-174.741-70.521-5.324 0-10.574.323-15.738.931 15.185 10.962 28.464 24.497 39.244 40.196 18.752 27.307 28.663 59.312 28.663 92.554 0 33.243-9.912 65.248-28.664 92.556-10.78 15.698-24.059 29.232-39.244 40.194 5.164.608 10.413.931 15.738.931 72.154 0 134.852-38.35 174.741-70.521 30.936-24.95 53.4-50.2 64.135-63.16z"/><path d="m242.849 125.926c28.755 12.863 57.367 30.743 85.041 53.142 15.639 12.658 29.147 25.268 40.267 36.522l21.949-29.644-4.513-8.383c-34.768-64.6-86.393-97.585-123.578-113.881-40.312-17.666-72.49-20.056-73.84-20.149l-9.977-.688-29.516 59.032c31.199 1.965 62.805 10.02 94.167 24.049z"/><path d="m0 265.068c0 53.84 31.998 100.342 77.972 121.505 47.508-21.786 77.879-68.815 77.879-121.505s-30.372-99.72-77.88-121.505c-45.974 21.164-77.971 67.665-77.971 121.505zm59.341-11.941h32.479v30h-32.479z"/><path d="m483.264 265.068c0-42.629 17.535-78.049 17.699-78.377l11.037-21.78h-24.417c-26.15 0-52.383 16.22-77.969 48.209-7.654 9.57-14.046 19.082-18.897 26.91 8.104 9.438 19.615 25.038 19.615 25.038s-11.512 15.6-19.615 25.038c4.851 7.828 11.243 17.34 18.897 26.91 25.586 31.99 51.818 48.21 77.969 48.21h24.417l-11.037-21.78c-.177-.349-17.699-35.426-17.699-78.378z"/><path d="m327.89 351.068c-27.674 22.399-56.286 40.279-85.041 53.142-12.372 5.535-24.783 10.119-37.191 13.79l55.712 51.155 9.388-5.035c2.781-1.492 68.522-37.238 104.669-98.882l5.512-9.399-25.571-28.8c-8.236 7.759-17.415 15.884-27.478 24.029z"/></g></svg>