<?xml version="1.0" standalone="no"?>
<!DOCTYPE svg PUBLIC "-//W3C//DTD SVG 20010904//EN"
 "http://www.w3.org/TR/2001/REC-SVG-20010904/DTD/svg10.dtd">
<svg version="1.0" xmlns="http://www.w3.org/2000/svg"
 width="1280.000000pt" height="1280.000000pt" viewBox="0 0 1280.000000 1280.000000"
 preserveAspectRatio="xMidYMid meet">
<metadata>
Created by potrace 1.15, written by Peter Selinger 2001-2017
</metadata>
<g transform="translate(0.000000,1280.000000) scale(0.100000,-0.100000)"
fill="#000000" stroke="none">
<path d="M5145 12273 c85 -222 331 -1001 464 -1468 796 -2801 1034 -5564 686
-7966 -88 -609 -234 -1262 -374 -1673 -17 -49 -30 -90 -28 -92 8 -8 440 675
582 921 891 1547 1224 3167 1005 4885 -197 1546 -845 3156 -1946 4842 -128
196 -384 568 -391 568 -3 0 -2 -8 2 -17z"/>
<path d="M11260 11315 c-1032 -313 -1848 -1169 -2416 -2532 -348 -836 -603
-1878 -724 -2958 -22 -197 -50 -538 -49 -588 1 -41 -20 -91 238 563 623 1579
974 2359 1419 3145 401 711 904 1451 1520 2238 68 88 122 160 120 161 -2 2
-50 -11 -108 -29z"/>
<path d="M2506 10055 c1303 -2271 2024 -3977 2344 -5539 22 -110 42 -202 45
-204 13 -13 102 209 139 348 63 238 86 429 86 720 1 423 -65 805 -220 1270
-355 1068 -1134 2225 -2268 3370 l-252 255 126 -220z"/>
<path d="M1125 7528 c553 -463 1060 -957 1450 -1412 855 -996 1397 -2018 1689
-3181 109 -434 167 -774 266 -1545 82 -641 115 -843 182 -1119 28 -115 34
-130 41 -105 4 16 71 416 149 889 l141 860 5 237 c6 357 -29 652 -124 1038
-208 844 -651 1659 -1313 2415 -135 154 -511 531 -666 666 -368 322 -694 569
-1110 842 -167 109 -560 347 -680 411 l-70 37 40 -33z"/>
<path d="M10010 5937 c-1003 -554 -1646 -1383 -1904 -2457 -129 -536 -159
-1127 -85 -1720 21 -174 66 -420 78 -432 3 -4 15 25 25 65 77 305 253 872 383
1230 331 920 675 1654 1397 2981 113 209 205 381 203 382 -1 2 -45 -20 -97
-49z"/>
<path d="M10740 3928 c-14 -6 -75 -28 -136 -49 -660 -225 -1131 -693 -1408
-1401 -133 -339 -237 -866 -236 -1193 l1 -60 22 26 c12 14 81 95 153 180 620
729 1296 1685 1560 2205 81 160 115 264 94 289 -14 17 -16 17 -50 3z"/>
</g>
</svg>
