<svg id="Layer_1" enable-background="new 0 0 512 512" height="512" viewBox="0 0 512 512" width="512" xmlns="http://www.w3.org/2000/svg"><g clip-rule="evenodd" fill-rule="evenodd"><path d="m255.996 82.467c31.229 0 72.533.003 111.809 11.394 9.884-15.762 15.658-34.467 15.658-54.761v-24.1c0-8.284-6.716-15-15-15h-24.1c-32.634 0-67.924 16.153-88.366 49.667-20.438-33.506-55.719-49.667-88.368-49.667h-24.1c-8.284 0-15 6.716-15 15v24.1c0 20.293 5.773 38.998 15.658 54.761 39.275-11.392 80.58-11.394 111.809-11.394z"/><path d="m373.899 127.545c-38.772-15.078-84.508-15.078-117.903-15.078s-79.131 0-117.903 15.078c-77.382 30.093-73.83 102.348-73.83 112.388 0 67.869 22.819 138.898 74.756 198.626 37.599 43.241 85.702 73.441 116.977 73.441s79.378-30.2 116.978-73.441c51.888-59.672 74.756-130.701 74.756-198.626-.001-9.133 3.97-82.132-73.831-112.388zm-214.304 111.322c-8.25 0-15-6.72-15-15s6.75-15 15-15 15 6.72 15 15c0 8.279-6.75 15-15 15zm48.201 80.333c-8.25 0-15-6.72-15-15s6.75-15 15-15 15 6.72 15 15-6.751 15-15 15zm48.2 80.333c-8.25 0-15-6.72-15-15s6.75-15 15-15 15 6.72 15 15-6.751 15-15 15zm0-160.666c-8.25 0-15-6.72-15-15s6.75-15 15-15 15 6.72 15 15c0 8.279-6.751 15-15 15zm48.2 80.333c-8.25 0-15-6.72-15-15s6.75-15 15-15 15 6.72 15 15-6.751 15-15 15zm48.199-80.333c-8.25 0-15-6.72-15-15s6.75-15 15-15 15 6.72 15 15c0 8.279-6.75 15-15 15z"/></g></svg>